<svg width="20" height="20" viewBox="0 0 20 20" fill="none" xmlns="http://www.w3.org/2000/svg">
<path d="M2.5 2C2.77614 2 3 2.22386 3 2.5V16.2929L7.14645 12.1464C7.24021 12.0527 7.36739 12 7.5 12H15.2929L14.1464 10.8536C13.9512 10.6583 13.9512 10.3417 14.1464 10.1464C14.3417 9.95118 14.6583 9.95118 14.8536 10.1464L16.8536 12.1464C17.0488 12.3417 17.0488 12.6583 16.8536 12.8536L14.8536 14.8536C14.6583 15.0488 14.3417 15.0488 14.1464 14.8536C13.9512 14.6583 13.9512 14.3417 14.1464 14.1464L15.2929 13H7.70711L3.70711 17H17.5C17.7761 17 18 17.2239 18 17.5C18 17.7761 17.7761 18 17.5 18H2.5C2.22386 18 2 17.7761 2 17.5V2.5C2 2.22386 2.22386 2 2.5 2Z" fill="#1F222C"/>
<path d="M10 10.5C10 10.7761 9.77614 11 9.5 11C9.22386 11 9 10.7761 9 10.5C9 10.2239 9.22386 10 9.5 10C9.77614 10 10 10.2239 10 10.5Z" fill="#1F222C"/>
<path d="M11.5 9C11.7761 9 12 8.77614 12 8.5C12 8.22386 11.7761 8 11.5 8C11.2239 8 11 8.22386 11 8.5C11 8.77614 11.2239 9 11.5 9Z" fill="#1F222C"/>
<path d="M14 6.5C14 6.77614 13.7761 7 13.5 7C13.2239 7 13 6.77614 13 6.5C13 6.22386 13.2239 6 13.5 6C13.7761 6 14 6.22386 14 6.5Z" fill="#1F222C"/>
<path d="M15.5 5C15.7761 5 16 4.77614 16 4.5C16 4.22386 15.7761 4 15.5 4C15.2239 4 15 4.22386 15 4.5C15 4.77614 15.2239 5 15.5 5Z" fill="#1F222C"/>
</svg>
